<?xml version="1.0" encoding="utf-8"?>
<?xml-stylesheet type="text/xsl" href="rss1.xsl"?>
<rss version="2.0" xmlns:atom="http://www.w3.org/2005/Atom" xmlns:content="http://purl.org/rss/1.0/modules/content/" xmlns:dc="http://purl.org/dc/elements/1.1/" xmlns:media="http://search.yahoo.com/mrss/">
<channel>
 <title>Getty</title>
 <link>http://www.gettyimg.com/</link>
 <atom:link href="http://www.gettyimg.com/" rel="self" type="application/rss+xml" />

 
                <item>
                <title><![CDATA[【UPSCALED】Jane Bordeaux - Ma'agalim [4K AI Upscale HEVC 10-bit / PCM]]]></title>
                <link><![CDATA[https://sharemania.us/threads/jane-bordeaux-maagalim-4k-ai-upscale-hevc-10-bit-pcm.220789/]]></link>
                <description><![CDATA[<article>
<blockquote class="messageText SelectQuoteContainer ugc baseHtml">
<b><img src="https://images2.imgbox.com/a9/ea/1Mihzn4i_o.jpg" class="bbCodeImage LbImage" alt="[​IMG]" data-url="https://images2.imgbox.com/a9/ea/1Mihzn4i_o.jpg" style=""> <br>
<br>
Genre: <span style="color: #0059b3">Folk, World</span><br>
Year: <span style="color: #0059b3">2015</span><br>
Video Source: <span style="color: #0059b3">Vimeo, master, 1080p</span><br>
Audio Source: <span style="color: #0059b3">Qobuz, thanks Brungor</span></b><br>
<br>
"<b>Ma’agalim</b>" is a song by Hebrew indie, country and folk band <i>Jane Bordeaux</i> (also known as Jane Bordeaux Band or JB Band), released in 2016. The members of the band are Doron Talmon (vocals and percussion), Mati Gilad (double bass, bass guitar, vocals), Yoav Arbel (drums, vocals), Rami Oservaser (acoustic guitar, electric guitar, ukulele) and Stav Achai (keyboards). They discribe themselves as a band from Tel-Aviv, making Live n' kickin' american folk-country style music in Hebrew.<br>
The origin of the name "Jane Bordeaux" is the combination of the names of the two horses of the soloist Doron Talmon.<br>
<br>
The childlike simplicity of the animated music video for "Ma’agalim" invites the viewer into a cartoon world inhabited by a wooden doll. The enchanting music video was created by director Uri Lotan.<br>
<br>
Music - Jane Bordeaux Band<br>
Producers: Uri Lotan &amp; Yoav Shtibelman<br>
Director: Uri Lotan<br>
Co-Director: Yoav Shtibelman<br>
Art Director: Ovadia Benishu<br>
Additional Art: Avner Geller<br>
Lighting and Shading: Yosef Refaeli<br>
Additional Lighting: Uri Lotan, Rob Showalter<br>
Storyboard: Yoav Shtibelman<br>
Modeling and Rigging: Uri Lotan, Ore Peleg, Or Ofri<br>
Texturing:Yosef Refaeli, Dor Ben-Dayan<br>
Animation: Yoav Shtibelman, Toby Pedersen, Ron Polischuk<br>
Effects: Phenomena Labs<br>
Compositing: Uri Lotan, Ilya Marcus<br>
Colorist: Ilya Marcus<br>
<br>
Jane Bordeaux - Doron Talmon, Amir Zeevi, Mati Gilad<br>
Lyrics by - Meytal Kadosh<br>
Composed by Doron Talmon<br>
Percussion and Singing - Doron Talmon<br>
Guitar - Amir Zeevi<br>
Duble Bass - Mati Gilad<br>
Harmonica, Percussion, Music Production and Mix - Tomer Yeshayahu<br>
Mastering - Ori Winokur "Slik Studio"<br>
<br>
<b>Awards</b><br>
Saatchi &amp; Saatchi New Directors' Showcase 2016<br>
ArtFutura Festival 2016.<br>
SPARK ANIMATION 2016<br>
Grafixx 2016<br>
23rd Oulu Music Video Festival<br>
Flux Screening Series at the Hammer Museum<br>
8th international animation festival and market of Segovia<br>
PUCK CINEMA CARAVANA<br>
Asif - Israel<br>
FMK - International Short Film Festival<br>
LA Shorts fest<br>
SF Shorts Fest<br>
New Orleans Film Festival<br>
Flickers - Rhode Island<br>
ANIMA MUNDI 2016<br>
Tumble weeds Salt Lake city<br>
KLIK<br>
Animago - Won Jury's award<br>
ANIMEST international animation film<br>
Kuandu International Animation Festival<br>
<br>
<b>Translated lyrics</b><br>
Nights turn into days, days turn into years<br>
and in that time I'm walking fast in circles<br>
<br>
Winds are blowing at me, blowing down my neck<br>
Everything looks too distant, for my size their too great<br>
<br>
It's not me that's moving forward, it's only time that slips away<br>
It's another train that passes by, it's another tightening rope<br>
<br>
Sunrises setting fast, as more seasons pass<br>
And me, still the same while time is getting short<br>
<br>
It's not me that's moving forward, it's only time that slips away (2x)<br>
It's another train that passes by, it's another tightening rope<br>
<br>
<b>Release Info</b><br>
The video track is upscaled to 4K with Topaz Video AI and converted to HEVC 10-bit.<br>
The PCM track is lossless (Qobuz, CD quality), synced with Adobe Audition.<br>
<br>
<div class="ToggleTriggerAnchor bbCodeSpoilerContainer">
<button type="button" class="button bbCodeSpoilerButton ToggleTrigger Tooltip JsOnly" data-target="> .SpoilerTarget"><span>Spoiler: <span class="SpoilerTitle">Media Info</span></span></button>
<div class="SpoilerTarget bbCodeSpoilerText">
<div class="bbCodeBlock bbCodeCode">
<div class="type">Code:</div>
<pre>General
Unique ID                      : 318226317215209630479916511702815105936 (0xEF6828CA9DDB32B95FDD2A8E49A46390)
Complete name                  : Jane Bordeaux - Ma'agalim.mkv
Format                         : Matroska
Format version                 : Version 4
File size                      : 489 MiB
Duration                       : 3 min 24 s
Overall bit rate               : 20.0 Mb/s
Encoded date                   : UTC 2023-05-09 19:58:43
Writing application            : mkvmerge v76.0 ('Celebration') 64-bit
Writing library                : libebml v1.4.4 + libmatroska v1.7.1

Video
ID                             : 1
Format                         : HEVC
Format/Info                    : High Efficiency Video Coding
Format profile                 : Main 10@L5@Main
Codec ID                       : V_MPEGH/ISO/HEVC
Duration                       : 3 min 24 s
Bit rate                       : 18.6 Mb/s
Width                          : 3 840 pixels
Height                         : 2 160 pixels
Display aspect ratio           : 16:9
Frame rate mode                : Constant
Frame rate                     : 24.000 FPS
Color space                    : YUV
Chroma subsampling             : 4:2:0
Bit depth                      : 10 bits
Bits/(Pixel*Frame)             : 0.094
Stream size                    : 454 MiB (93%)
Default                        : Yes
Forced                         : No
Color range                    : Limited
Color primaries                : BT.709
Transfer characteristics       : BT.709
Matrix coefficients            : BT.709

Audio
ID                             : 2
Format                         : PCM
Format settings                : Little / Signed
Codec ID                       : A_PCM/INT/LIT
Duration                       : 3 min 24 s
Bit rate mode                  : Constant
Bit rate                       : 1 411.2 kb/s
Channel(s)                     : 2 channels
Sampling rate                  : 44.1 kHz
Frame rate                     : 25.002 FPS (1764 SPF)
Bit depth                      : 16 bits
Delay relative to video        : -97 ms
Stream size                    : 34.5 MiB (7%)
Language                       : Hebrew
Default                        : Yes
Forced                         : No
</pre>
</div></div>
</div><br>
<div class="bbCodeBlock bbCodeVfcHH HiddenContent">
<div class="attribution type">Hidden Content:</div>
<blockquote>You must reply before you can see the hidden data contained here.</blockquote>
</div>
<div class="messageTextEndMarker">&nbsp;</div>
</blockquote>
</article>]]></description>
                <author><![CDATA[ADHDerby]]></author>
                </item>

                
                <item>
                <title><![CDATA[【HD Live Performances】WEB-RiP - Ed Sheeran - Apple Itunes Music Live 2023 4k WEB-DL HDR Dolby Digital Plus Atmos 5.1 H.265]]></title>
                <link><![CDATA[https://sharemania.us/threads/ed-sheeran-apple-itunes-music-live-2023-4k-web-dl-hdr-dolby-digital-plus-atmos-5-1-h-265.220787/]]></link>
                <description><![CDATA[<article>
<blockquote class="messageText SelectQuoteContainer ugc baseHtml">
<img src="https://www.apple.com/newsroom/images/product/music/standard/Apple-Music-Live-Ed-Sheeran-with-guitar_big.jpg.slideshow-xlarge_2x.jpg" class="bbCodeImage LbImage" alt="[​IMG]" data-url="https://www.apple.com/newsroom/images/product/music/standard/Apple-Music-Live-Ed-Sheeran-with-guitar_big.jpg.slideshow-xlarge_2x.jpg" style=""> <br>
<img src="https://i.ibb.co/0QF5WCq/Ed-Sheeran-Apple-Itunes-Music-Live-2023-4k-WEB-DL-HDR-Dolby-Digital-Plus-Atmos-5-1-H-265-mkv.jpg" class="bbCodeImage LbImage" alt="[​IMG]" data-url="https://i.ibb.co/0QF5WCq/Ed-Sheeran-Apple-Itunes-Music-Live-2023-4k-WEB-DL-HDR-Dolby-Digital-Plus-Atmos-5-1-H-265-mkv.jpg" style=""> \<br>
<div class="ToggleTriggerAnchor bbCodeSpoilerContainer">
<button type="button" class="button bbCodeSpoilerButton ToggleTrigger Tooltip JsOnly" data-target="> .SpoilerTarget"><span>Spoiler: <span class="SpoilerTitle">Media Info</span></span></button>
<div class="SpoilerTarget bbCodeSpoilerText">General<br>
Unique ID : 340063305619939858890633557934951593916 (0xFFD5CF71A9254FA403FA4B04A25377BC)<br>
Complete name : Ed Sheeran - Apple Itunes Music Live 2023 4k WEB-DL HDR Dolby Digital Plus Atmos 5.1 H.265.mkv<br>
Format : Matroska<br>
Format version : Version 4<br>
File size : 12.4 GiB<br>
Duration : 1 h 9 min<br>
Overall bit rate : 25.5 Mb/s<br>
Frame rate : 23.976 FPS<br>
Writing application : mkvmerge v49.0.0 ('Sick Of Losing Soulmates') 64-bit<br>
Writing library : libebml v1.4.0 + libmatroska v1.6.1<br>
<br>
Video<br>
ID : 1<br>
Format : HEVC<br>
Format/Info : High Efficiency Video Coding<br>
Format profile : Main 10@L5@High<br>
HDR format : SMPTE ST 2094 App 4, Version 1, HDR10+ Profile B compatible<br>
Codec ID : V_MPEGH/ISO/HEVC<br>
Duration : 1 h 9 min<br>
Bit rate : 24.3 Mb/s<br>
Width : 3 840 pixels<br>
Height : 2 160 pixels<br>
Display aspect ratio : 16:9<br>
Frame rate mode : Constant<br>
Frame rate : 23.976 (24000/1001) FPS<br>
Color space : YUV<br>
Chroma subsampling : 4:2:0 (Type 2)<br>
Bit depth : 10 bits<br>
Bits/(Pixel*Frame) : 0.122<br>
Stream size : 11.7 GiB (95%)<br>
Language : English<br>
Default : Yes<br>
Forced : No<br>
Color range : Limited<br>
Color primaries : BT.2020<br>
Transfer characteristics : PQ<br>
Matrix coefficients : BT.2020 non-constant<br>
Mastering display color primaries : Display P3<br>
Mastering display luminance : min: 0.0050 cd/m2, max: 1000 cd/m2<br>
Maximum Content Light Level : 1516 cd/m2<br>
Maximum Frame-Average Light Level : 178 cd/m2<br>
<br>
Audio<br>
ID : 2<br>
Format : E-AC-3 JOC<br>
Format/Info : Enhanced AC-3 with Joint Object Coding<br>
Commercial name : Dolby Digital Plus with Dolby Atmos<br>
Codec ID : A_EAC3<br>
Duration : 1 h 9 min<br>
Bit rate mode : Constant<br>
Bit rate : 768 kb/s<br>
Channel(s) : 6 channels<br>
Channel layout : L R C LFE Ls Rs<br>
Sampling rate : 48.0 kHz<br>
Frame rate : 31.250 FPS (1536 SPF)<br>
Compression mode : Lossy<br>
Stream size : 380 MiB (3%)<br>
Language : English<br>
Service kind : Complete Main<br>
Default : Yes<br>
Forced : No<br>
Complexity index : 16<br>
Number of dynamic objects : 15<br>
Bed channel count : 1 channel<br>
Bed channel configuration : LFE<br>
<br>
Text #1<br>
ID : 3<br>
Format : UTF-8<br>
Codec ID : S_TEXT/UTF8<br>
Codec ID/Info : UTF-8 Plain Text<br>
Title : English<br>
Language : English<br>
Default : No<br>
Forced : No<br>
<br>
Text #2<br>
ID : 4<br>
Format : UTF-8<br>
Codec ID : S_TEXT/UTF8<br>
Codec ID/Info : UTF-8 Plain Text<br>
Title : English [SDH]<br>
Language : English<br>
Default : No<br>
Forced : No<br>
<br>
Text #3<br>
ID : 5<br>
Format : UTF-8<br>
Codec ID : S_TEXT/UTF8<br>
Codec ID/Info : UTF-8 Plain Text<br>
Title : French<br>
Language : French<br>
Default : No<br>
Forced : No</div>
</div>Ripped by me <img src="styles/default/xenforo/smilies/big_smile-48.png" class="mceSmilie" alt=":)" title="Smile    :)"><br>
<div class="bbCodeBlock bbCodeVfcHH HiddenContent">
<div class="attribution type">Hidden Content:</div>
<blockquote>You must either reply or click 'Like' to see the hidden information contained here.</blockquote>
</div>
<div class="messageTextEndMarker">&nbsp;</div>
</blockquote>
</article>]]></description>
                <author><![CDATA[szymek04sawicki]]></author>
                </item>

                
                <item>
                <title><![CDATA[【UPSCALED】10cc - Dreadlock Holiday [1080p AI Upscale / PCM]]]></title>
                <link><![CDATA[https://sharemania.us/threads/10cc-dreadlock-holiday-1080p-ai-upscale-pcm.220788/]]></link>
                <description><![CDATA[<article>
<blockquote class="messageText SelectQuoteContainer ugc baseHtml">
<b><img src="https://images2.imgbox.com/cc/73/Q9XD574I_o.jpg" class="bbCodeImage LbImage" alt="[​IMG]" data-url="https://images2.imgbox.com/cc/73/Q9XD574I_o.jpg" style=""> <br>
<br>
Genre: <span style="color: #0059b3">Rock, Reggae</span> <br>
Style: <span style="color: #0059b3">Pop Rock, Reggae-Pop</span> <br>
Year: <span style="color: #0059b3">1978</span> <br>
Video Source: <span style="color: #0059b3">DVD, 480i</span><br>
Audio Source: <span style="color: #0059b3">CD (Best Of)</span></b><br>
<br>
"<b>Dreadlock Holiday</b>" is a reggae song by British group 10cc. Written by Eric Stewart and Graham Gouldman, it was the lead single from the band's 1978 album, <i>Bloody Tourists</i>.<br>
The song was based on real events Eric Stewart and Moody Blues vocalist Justin Hayward experienced in Barbados; and Graham Gouldman experienced in Jamaica. Graham Gouldman commented: "Some of the experiences that are mentioned are true, and some of them are ... fairly true!" Stewart recalled seeing a white guy "trying to be cool and he looked so naff" walking into a group of Afro-Caribbeans and being reprimanded, which became the lyric "Don't you walk through my words, you got to show some respect." Another lyric came from a conversation Gouldman had with a Jamaican, who when asked if he liked cricket replied, "No, I love it!".<br>
<br>
"Dreadlock Holiday" became the group's international number 1 hit topping the charts in the UK, Belgium, New Zealand and The Netherlands. The single also reached number 2 in Ireland and Australia, became a top 10 hit in Norway and Switzerland, and top 20 in Germany and Sweden. In Austria the song became 10cc's single entry in the charts peaking at number 18.<br>
In North America, "Dreadlock Holiday" became a minor hit, peaking at number 45 in Canada's <i>RPM</i> charts and number 44 on the US <i>Billboard</i> Hot 100. When asked why he thought the song didn't do better in the US, Gouldman said that reportedly some radio stations would not play reggae of any kind. In the UK, the song was the band's third number 1 and at the same time final top 10 hit.<br>
<br>
Graham Gouldman sang lead on this track, giving 10cc the distinction of having three UK #1 hits all with different lead vocalists (Lol Creme sang lead on "Rubber Bullets" and Stewart on "I'm Not In Love").<br>
<br>
The music video for the song was directed by Storm Thorgerson. The beach scene was filmed on the Dorset coast near Charmouth.<br>
<br>
<b>Release Info</b><br>
The video track is upscaled from 480i to 1080p with Topaz Video Enhance AI.<br>
The PCM track is ripped from CD, edited and synced with Adobe Audition.<br>
The timed lyrics are synced and edited to match the music video.<br>
Enable the subtitles to see the lyrics.<br>
<br>
<div class="ToggleTriggerAnchor bbCodeSpoilerContainer">
<button type="button" class="button bbCodeSpoilerButton ToggleTrigger Tooltip JsOnly" data-target="> .SpoilerTarget"><span>Spoiler: <span class="SpoilerTitle">Media Info</span></span></button>
<div class="SpoilerTarget bbCodeSpoilerText">
<div class="bbCodeBlock bbCodeCode">
<div class="type">Code:</div>
<pre>General
Unique ID                      : 243970080322106997846558738309889444878 (0xB78AEDA68E4BD47228A6031FFEF4CC0E)
Complete name                  : 10cc - Dreadlock Holiday.mkv
Format                         : Matroska
Format version                 : Version 4
File size                      : 527 MiB
Duration                       : 4 min 12 s
Overall bit rate mode          : Variable
Overall bit rate               : 17.5 Mb/s
Encoded date                   : UTC 2023-05-12 13:41:03
Writing application            : mkvmerge v76.0 ('Celebration') 64-bit
Writing library                : libebml v1.4.4 + libmatroska v1.7.1

Video
ID                             : 1
Format                         : AVC
Format/Info                    : Advanced Video Codec
Format profile                 : High@L4
Format settings                : CABAC / 4 Ref Frames
Format settings, CABAC         : Yes
Format settings, Reference fra : 4 frames
Codec ID                       : V_MPEG4/ISO/AVC
Duration                       : 4 min 12 s
Bit rate mode                  : Variable
Bit rate                       : 16.0 Mb/s
Width                          : 1 920 pixels
Height                         : 1 080 pixels
Display aspect ratio           : 16:9
Frame rate mode                : Constant
Frame rate                     : 29.970 (30000/1001) FPS
Color space                    : YUV
Chroma subsampling             : 4:2:0
Bit depth                      : 8 bits
Scan type                      : Interlaced
Original scan type             : Progressive
Scan type, store method        : Interleaved fields
Scan order                     : Bottom Field First
Bits/(Pixel*Frame)             : 0.257
Stream size                    : 479 MiB (91%)
Default                        : Yes
Forced                         : No
Color range                    : Limited
Color primaries                : BT.601 NTSC
Transfer characteristics       : BT.601
Matrix coefficients            : BT.601

Audio #1
ID                             : 2
Format                         : PCM
Format settings                : Little / Signed
Codec ID                       : A_PCM/INT/LIT
Duration                       : 4 min 12 s
Bit rate mode                  : Constant
Bit rate                       : 1 411.2 kb/s
Channel(s)                     : 2 channels
Sampling rate                  : 44.1 kHz
Frame rate                     : 25.001 FPS (1764 SPF)
Bit depth                      : 16 bits
Stream size                    : 42.5 MiB (8%)
Title                          : Lossless
Language                       : English
Default                        : Yes
Forced                         : No

Audio #2
ID                             : 3
ID in the original source medi : 189 (0xBD)128 (0x80)
Format                         : AC-3
Format/Info                    : Audio Coding 3
Commercial name                : Dolby Digital
Codec ID                       : A_AC3
Duration                       : 4 min 12 s
Bit rate mode                  : Constant
Bit rate                       : 192 kb/s
Channel(s)                     : 2 channels
Channel layout                 : L R
Sampling rate                  : 48.0 kHz
Frame rate                     : 31.250 FPS (1536 SPF)
Compression mode               : Lossy
Stream size                    : 5.78 MiB (1%)
Title                          : Original
Language                       : English
Service kind                   : Complete Main
Default                        : No
Forced                         : No
Original source medium         : DVD-Video

Text
ID                             : 4
Format                         : UTF-8
Codec ID                       : S_TEXT/UTF8
Codec ID/Info                  : UTF-8 Plain Text
Duration                       : 3 min 49 s
Bit rate                       : 52 b/s
Frame rate                     : 0.240 FPS
Count of elements              : 55
Stream size                    : 1.46 KiB (0%)
Title                          : Lyrics
Language                       : English
Default                        : No
Forced                         : No
</pre>
</div></div>
</div><br>
<div class="bbCodeBlock bbCodeVfcHH HiddenContent">
<div class="attribution type">Hidden Content:</div>
<blockquote>You must reply before you can see the hidden data contained here.</blockquote>
</div>
<div class="messageTextEndMarker">&nbsp;</div>
</blockquote>
</article>]]></description>
                <author><![CDATA[ADHDerby]]></author>
                </item>

                
                <item>
                <title><![CDATA[【Requests】[REQ VID] - 58th Academy of Country Music Awards]]></title>
                <link><![CDATA[https://sharemania.us/threads/58th-academy-of-country-music-awards.220786/]]></link>
                <description><![CDATA[<article>
<blockquote class="messageText SelectQuoteContainer ugc baseHtml">
Was streamed live on Amazon Prime last night. Ed Sheeran made an appearance.<br>
<br>
Any chance someone would have this to post?<br>
<br>
Thanks. <img src="styles/default/xenforo/smilies/big_smile-48.png" class="mceSmilie" alt=":)" title="Smile    :)">
<div class="messageTextEndMarker">&nbsp;</div>
</blockquote>
</article>]]></description>
                <author><![CDATA[Smiler_70]]></author>
                </item>

                </channel></rss>